# File created by Blade
# Date/Time:  Thu Jan 22 19:01:23 2015
#---------------------------------------------------------
:version 1.10
:name HOM
:units
  mass 1.0
  length 1.000000
  angle deg
:documentation
     Acclaim Skeleton File
:root
   axis xyz
   order TX TY TZ RX RY RZ
   position 0.000000 0.000000 0.000000
   orientation 0 0 0
:bonedata
   begin
      id 1
      name RightUpLeg_dum
      direction -1.000000 0.000000 0.000000
      length 4.478084
      axis 0.0 0.0 0.0 xyz
   end
   begin
      id 2
      name LeftUpLeg_dum
      direction 1.000000 0.000000 0.000000
      length 4.478084
      axis 0.0 0.0 0.0 xyz
   end
   begin
      id 3
      name Spine_dum
      direction 0.000000 1.000000 0.000000
      length 6.068208
      axis 0.0 0.0 0.0 xyz
   end
   begin
      id 4
      name RightUpLeg
      direction 0.000000 -1.000000 0.000000
      length 16.405774
      axis 0.0 0.0 0.0 xyz
      dof rx ry rz
   end
   begin
      id 5
      name RightLeg
      direction 0.000000 -1.000000 0.000000
      length 14.644143
      axis 0.0 0.0 0.0 xyz
      dof rx ry rz
   end
   begin
      id 6
      name RightFoot
      direction 0.000000 -0.258819 0.965926
      length 5.806150
      axis 15.0 0.0 0.0 xyz
      dof rx ry rz
   end
   begin
      id 7
      name RightToeBase
      direction 0.000000 0.000000 1.000000
      length 2.952750
      axis 0.0 0.0 0.0 xyz
      dof rx ry rz
   end
   begin
      id 8
      name LeftUpLeg
      direction 0.000000 -1.000000 0.000000
      length 16.405774
      axis 0.0 0.0 0.0 xyz
      dof rx ry rz
   end
   begin
      id 9
      name LeftLeg
      direction 0.000000 -1.000000 0.000000
      length 14.644143
      axis 0.0 0.0 0.0 xyz
      dof rx ry rz
   end
   begin
      id 10
      name LeftFoot
      direction 0.000000 -0.258819 0.965926
      length 5.806150
      axis 15.0 0.0 0.0 xyz
      dof rx ry rz
   end
   begin
      id 11
      name LeftToeBase
      direction 0.000000 0.000000 1.000000
      length 2.952750
      axis 0.0 0.0 0.0 xyz
      dof rx ry rz
   end
   begin
      id 12
      name Spine
      direction 0.000000 1.000000 0.000000
      length 0.000000
      axis 0.0 0.0 0.0 xyz
      dof rx ry rz
   end
   begin
      id 13
      name Spine_dum1
      direction 0.000000 1.000000 0.000000
      length 10.013923
      axis 0.0 0.0 0.0 xyz
   end
   begin
      id 14
      name Spine_dum2
      direction 0.000000 1.000000 0.000000
      length 10.013923
      axis 0.0 0.0 0.0 xyz
   end
   begin
      id 15
      name Spine_dum3
      direction 0.000000 1.000000 0.000000
      length 15.777476
      axis 0.0 0.0 0.0 xyz
   end
   begin
      id 16
      name RightShoulder
      direction -1.000000 0.000000 0.000000
      length 7.190220
      axis 0.0 0.0 90.0 xyz
      dof rx ry rz
   end
   begin
      id 17
      name RightArm
      direction -1.000000 0.000000 0.000000
      length 10.177469
      axis 0.0 0.0 90.0 xyz
      dof rx ry rz
   end
   begin
      id 18
      name RightForeArm
      direction -1.000000 0.000000 0.000000
      length 8.392114
      axis 0.0 0.0 90.0 xyz
      dof ry rz rx
   end
   begin
      id 19
      name RightHand
      direction -1.000000 0.000000 0.000000
      length 0.000000
      axis 0.0 0.0 90.0 xyz
      dof rx ry rz
   end
   begin
      id 20
      name RightHand_dum1
      direction -1.000000 0.000000 0.000000
      length 3.937000
      axis 0.0 0.0 90.0 xyz
   end
   begin
      id 21
      name RightHand_dum2
      direction 0.000000 0.000000 0.000000
      length 0.000000
      axis 0.0 0.0 90.0 xyz
   end
   begin
      id 22
      name RightHandThumb1
      direction 0.000000 0.000000 1.000000
      length 3.937000
      axis 0.0 0.0 90.0 xyz
      dof rx rz ry
   end
   begin
      id 23
      name LeftShoulder
      direction 1.000000 0.000000 0.000000
      length 7.190220
      axis 0.0 0.0 -90.0 xyz
      dof rx ry rz
   end
   begin
      id 24
      name LeftArm
      direction 1.000000 0.000000 0.000000
      length 10.177469
      axis 0.0 0.0 -90.0 xyz
      dof rx ry rz
   end
   begin
      id 25
      name LeftForeArm
      direction 1.000000 0.000000 0.000000
      length 8.392114
      axis 0.0 0.0 -90.0 xyz
      dof ry rz rx
   end
   begin
      id 26
      name LeftHand
      direction 1.000000 0.000000 0.000000
      length 0.000000
      axis 0.0 0.0 -90.0 xyz
      dof rx ry rz
   end
   begin
      id 27
      name LeftHand_dum1
      direction 1.000000 0.000000 0.000000
      length 3.937000
      axis 0.0 0.0 -90.0 xyz
   end
   begin
      id 28
      name LeftHand_dum2
      direction 0.000000 0.000000 0.000000
      length 0.000000
      axis 0.0 0.0 -90.0 xyz
   end
   begin
      id 29
      name LeftHandThumb1
      direction 0.000000 0.000000 1.000000
      length 3.937000
      axis 0.0 0.0 -90.0 xyz
      dof rx rz ry
   end
   begin
      id 30
      name Head
      direction 0.000000 1.000000 0.000000
      length 4.527550
      axis 0.0 0.0 0.0 xyz
      dof rx ry rz
   end
:hierarchy
   begin
      root RightUpLeg_dum LeftUpLeg_dum Spine_dum
      RightUpLeg_dum RightUpLeg
      LeftUpLeg_dum LeftUpLeg
      Spine_dum Spine
      RightUpLeg RightLeg
      RightLeg RightFoot
      RightFoot RightToeBase
      LeftUpLeg LeftLeg
      LeftLeg LeftFoot
      LeftFoot LeftToeBase
      Spine Spine_dum1 Spine_dum2 Spine_dum3
      Spine_dum1 RightShoulder
      Spine_dum2 LeftShoulder
      Spine_dum3 Head
      RightShoulder RightArm
      RightArm RightForeArm
      RightForeArm RightHand
      RightHand RightHand_dum1 RightHand_dum2
      RightHand_dum2 RightHandThumb1
      LeftShoulder LeftArm
      LeftArm LeftForeArm
      LeftForeArm LeftHand
      LeftHand LeftHand_dum1 LeftHand_dum2
      LeftHand_dum2 LeftHandThumb1
   end

# File created by Blade
# Date/Time:  Thu Jan 22 19:01:15 2015
# Frame Rate: 120.000 fps
#------------------------------------------------------
:FULLY-SPECIFIED
:DEGREES
493
root -3.014921 33.397938 -1.553229 15.990971 -1.489784 2.220930
RightUpLeg -13.605819 -8.359981 0.346610
RightLeg 3.671241 -0.000000 -0.000000
RightFoot -9.734654 -2.051262 3.080973
RightToeBase 5.037350 -0.000000 -0.000000
LeftUpLeg -13.260096 5.319244 0.732384
LeftLeg 4.297795 -0.000000 -0.000000
LeftFoot -8.950401 0.797836 -9.954386
LeftToeBase 6.682194 -0.000000 -0.000000
Spine 4.194703 -2.030213 -2.486709
RightShoulder -43.736054 -42.265633 -0.786751
RightArm -0.356805 -23.441306 83.899932
RightForeArm -22.310761 -0.000000 6.246609
RightHand 3.225074 -0.000000 52.953084
RightHandThumb1 -24.326973 -0.000000 -32.862282
LeftShoulder -39.531095 29.781342 13.747758
LeftArm -23.333865 9.857983 -97.051306
LeftForeArm 36.335771 -0.000000 1.218778
LeftHand -0.373432 -0.000000 -47.614737
LeftHandThumb1 -26.253704 0.000000 33.147579
Head -21.020264 2.257842 -4.399408
494
root -3.016120 33.399355 -1.620529 16.335223 -1.440982 2.224494
RightUpLeg -14.115728 -8.374869 0.429649
RightLeg 3.760042 -0.000000 -0.000000
RightFoot -9.685562 -2.090238 3.042585
RightToeBase 5.040082 -0.000000 -0.000000
LeftUpLeg -13.706668 5.342033 0.698747
LeftLeg 4.233193 -0.000000 -0.000000
LeftFoot -8.801803 0.700190 -9.915101
LeftToeBase 6.712315 -0.000000 -0.000000
Spine 4.385328 -2.083217 -2.525919
RightShoulder -43.637571 -42.252766 -0.876993
RightArm -0.385890 -23.565642 83.936215
RightForeArm -22.179677 -0.000000 6.215711
RightHand 3.198450 0.000000 52.934478
RightHandThumb1 -24.326973 -0.000000 -32.862282
LeftShoulder -39.561772 29.828351 13.707697
LeftArm -23.299395 9.901880 -97.091368
LeftForeArm 36.313781 0.000000 1.233656
LeftHand -0.389199 -0.000000 -47.611590
LeftHandThumb1 -26.253704 0.000000 33.147579
Head -21.285396 2.203598 -4.413804
495
root -3.018662 33.400569 -1.687310 16.677802 -1.414060 2.245026
RightUpLeg -14.616602 -8.366696 0.491356
RightLeg 3.834560 -0.000000 -0.000000
RightFoot -9.636896 -2.153529 2.940342
RightToeBase 4.966440 -0.000000 -0.000000
LeftUpLeg -14.116161 5.286935 0.669272
LeftLeg 4.109397 -0.000000 -0.000000
LeftFoot -8.637741 0.686490 -9.932595
LeftToeBase 6.749623 -0.000000 -0.000000
Spine 4.584598 -2.136587 -2.622490
RightShoulder -43.500386 -42.211628 -0.974568
RightArm -0.434012 -23.573386 83.987221
RightForeArm -22.150878 0.000000 6.200274
RightHand 3.248628 -0.000000 52.891835
RightHandThumb1 -24.326973 -0.000000 -32.862282
LeftShoulder -39.609271 29.807604 13.697656
LeftArm -23.301385 9.790222 -97.038100
LeftForeArm 36.404779 0.000000 1.208435
LeftHand -0.338458 -0.000000 -47.683050
LeftHandThumb1 -26.253704 0.000000 33.147579
Head -21.520413 2.206987 -4.377931
496
root -3.020416 33.401813 -1.756193 17.066497 -1.379111 2.258949
RightUpLeg -15.171585 -8.321579 0.552372
RightLeg 3.924592 -0.000000 -0.000000
RightFoot -9.597802 -2.236916 2.901803
RightToeBase 4.993391 -0.000000 -0.000000
LeftUpLeg -14.568804 5.167458 0.652914
LeftLeg 3.975623 -0.000000 -0.000000
LeftFoot -8.481659 0.749102 -9.953210
LeftToeBase 6.786432 -0.000000 -0.000000
Spine 4.725191 -2.169669 -2.685246
RightShoulder -43.449268 -42.206491 -1.004048
RightArm -0.437686 -23.726668 84.003254
RightForeArm -22.059316 0.000000 6.243604
RightHand 3.276901 -0.000000 52.937438
RightHandThumb1 -24.326973 -0.000000 -32.862282
LeftShoulder -39.625992 29.806315 13.689335
LeftArm -23.309241 9.789403 -97.041917
LeftForeArm 36.375810 -0.000000 1.244843
LeftHand -0.272966 -0.000000 -47.725509
LeftHandThumb1 -26.253704 0.000000 33.147579
Head -21.722458 2.148680 -4.365014
497
root -3.022011 33.402801 -1.822303 17.442840 -1.306723 2.267817
RightUpLeg -15.682059 -8.336544 0.628026
RightLeg 3.967030 -0.000000 -0.000000
RightFoot -9.538589 -2.274194 2.864189
RightToeBase 4.970347 -0.000000 -0.000000
LeftUpLeg -15.011031 5.099736 0.631434
LeftLeg 3.823509 -0.000000 -0.000000
LeftFoot -8.312843 0.737722 -10.050436
LeftToeBase 6.827326 -0.000000 -0.000000
Spine 4.867565 -2.197196 -2.708030
RightShoulder -43.429100 -42.186405 -1.058050
RightArm -0.473314 -23.705662 84.065231
RightForeArm -22.088854 0.000000 6.263119
RightHand 3.281391 -0.000000 52.939719
RightHandThumb1 -24.326973 -0.000000 -32.862282
LeftShoulder -39.576569 29.777214 13.706082
LeftArm -23.353437 9.854784 -97.094374
LeftForeArm 36.237081 -0.000000 1.302168
LeftHand -0.265229 0.000000 -47.733091
LeftHandThumb1 -26.253704 0.000000 33.147579
Head -21.832254 2.087077 -4.429049
498
root -3.026466 33.404057 -1.893524 17.823955 -1.270738 2.262020
RightUpLeg -16.221401 -8.302486 0.704388
RightLeg 4.034842 -0.000000 -0.000000
RightFoot -9.477944 -2.279397 2.885523
RightToeBase 5.071527 -0.000000 -0.000000
LeftUpLeg -15.462734 5.063131 0.628248
LeftLeg 3.692047 -0.000000 -0.000000
LeftFoot -8.158361 0.716167 -10.085083
LeftToeBase 6.887150 -0.000000 -0.000000
Spine 5.023338 -2.220195 -2.744323
RightShoulder -43.368884 -42.165619 -1.087533
RightArm -0.491133 -23.804133 84.093863
RightForeArm -22.041210 -0.000000 6.344157
RightHand 3.300319 -0.000000 53.028985
RightHandThumb1 -24.326973 -0.000000 -32.862282
LeftShoulder -39.557734 29.770423 13.703208
LeftArm -23.341742 9.874453 -97.139712
LeftForeArm 36.126946 0.000000 1.334371
LeftHand -0.293427 0.000000 -47.727098
LeftHandThumb1 -26.253704 0.000000 33.147579
Head -21.940132 2.019724 -4.452790
499
root -3.027824 33.405430 -1.962851 18.196043 -1.227420 2.275037
RightUpLeg -16.735584 -8.247799 0.752179
RightLeg 4.080999 -0.000000 -0.000000
RightFoot -9.406140 -2.354455 2.838096
RightToeBase 5.021177 -0.000000 -0.000000
LeftUpLeg -15.902363 5.084244 0.584474
LeftLeg 3.548962 -0.000000 -0.000000
LeftFoot -7.966419 0.634510 -10.075917
LeftToeBase 6.903791 -0.000000 -0.000000
Spine 5.198277 -2.240044 -2.791724
RightShoulder -43.319969 -42.103331 -1.156841
RightArm -0.533880 -23.874139 84.162726
RightForeArm -22.005664 -0.000000 6.352805
RightHand 3.354516 -0.000000 52.945514
RightHandThumb1 -24.326973 -0.000000 -32.862282
LeftShoulder -39.511128 29.712287 13.755201
LeftArm -23.362756 9.845129 -97.194149
LeftForeArm 36.159999 0.000000 1.328454
LeftHand -0.191019 -0.000000 -47.775808
LeftHandThumb1 -26.253704 0.000000 33.147579
Head -22.068434 1.962085 -4.474744
500
root -3.031460 33.405427 -2.029332 18.537154 -1.173362 2.273824
RightUpLeg -17.197767 -8.289199 0.838236
RightLeg 4.087855 -0.000000 -0.000000
RightFoot -9.333546 -2.325388 2.831466
RightToeBase 5.045995 -0.000000 -0.000000
LeftUpLeg -16.291208 4.984359 0.596542
LeftLeg 3.387666 -0.000000 -0.000000
LeftFoot -7.813508 0.645195 -10.112597
LeftToeBase 6.913633 -0.000000 -0.000000
Spine 5.395845 -2.283855 -2.834482
RightShoulder -43.250184 -42.092482 -1.166686
RightArm -0.530154 -23.996277 84.193570
RightForeArm -21.890570 -0.000000 6.396300
RightHand 3.418770 -0.000000 52.936918
RightHandThumb1 -24.326973 -0.000000 -32.862282
LeftShoulder -39.519771 29.756882 13.713455
LeftArm -23.274626 9.856492 -97.249901
LeftForeArm 36.105015 -0.000000 1.340535
LeftHand -0.176536 0.000000 -47.761694
LeftHandThumb1 -26.253704 0.000000 33.147579
Head -22.123596 1.948663 -4.492564
501
root -3.030356 33.406300 -2.097979 18.883117 -1.132409 2.284164
RightUpLeg -17.671655 -8.265186 0.886879
RightLeg 4.103682 -0.000000 -0.000000
RightFoot -9.259844 -2.346552 2.812365
RightToeBase 5.089710 -0.000000 -0.000000
LeftUpLeg -16.679864 4.946710 0.568799
LeftLeg 3.205511 -0.000000 -0.000000
LeftFoot -7.627161 0.633414 -10.108304
LeftToeBase 6.966998 -0.000000 -0.000000
Spine 5.609168 -2.335259 -2.870273
RightShoulder -43.158474 -42.025297 -1.276472
RightArm -0.557409 -24.013736 84.254876
RightForeArm -21.837893 -0.000000 6.415547
RightHand 3.390114 0.000000 52.975167
RightHandThumb1 -24.326973 -0.000000 -32.862282
LeftShoulder -39.456659 29.640525 13.793387
LeftArm -23.370092 9.856760 -97.365966
LeftForeArm 36.124142 0.000000 1.332748
LeftHand -0.142262 -0.000000 -47.741750
LeftHandThumb1 -26.253704 0.000000 33.147579
Head -22.207231 1.857472 -4.498924
502
root -3.035197 33.407143 -2.166499 19.239161 -1.073225 2.289086
RightUpLeg -18.127717 -8.165734 0.932502
RightLeg 4.075450 -0.000000 -0.000000
RightFoot -9.165710 -2.461695 2.799702
RightToeBase 5.061650 -0.000000 -0.000000
LeftUpLeg -17.090198 4.932061 0.552130
LeftLeg 3.040212 -0.000000 -0.000000
LeftFoot -7.436601 0.574050 -10.102752
LeftToeBase 6.967148 -0.000000 -0.000000
Spine 5.811798 -2.399613 -2.928453
RightShoulder -43.096885 -41.981401 -1.310704
RightArm -0.533202 -24.185214 84.286926
RightForeArm -21.712368 0.000000 6.421640
RightHand 3.375456 -0.000000 52.995300
RightHandThumb1 -24.326973 -0.000000 -32.862282
LeftShoulder -39.404638 29.586569 13.824348
LeftArm -23.379393 9.726877 -97.404088
LeftForeArm 36.171652 -0.000000 1.351558
LeftHand -0.215373 -0.000000 -47.750582
LeftHandThumb1 -26.253704 0.000000 33.147579
Head -22.267550 1.855610 -4.517100
503
root -3.038700 33.407586 -2.238400 19.603094 -1.016330 2.282753
RightUpLeg -18.598361 -8.108359 1.002696
RightLeg 4.041391 -0.000000 -0.000000
RightFoot -9.058870 -2.555265 2.774693
RightToeBase 5.015367 -0.000000 -0.000000
LeftUpLeg -17.505202 4.856108 0.564287
LeftLeg 2.863610 -0.000000 -0.000000
LeftFoot -7.264968 0.560955 -10.163640
LeftToeBase 6.988405 -0.000000 -0.000000
Spine 6.018769 -2.462874 -2.973665
RightShoulder -43.043663 -41.992173 -1.290389
RightArm -0.457806 -24.316240 84.294961
RightForeArm -21.608516 -0.000000 6.469503
RightHand 3.405373 -0.000000 53.069840
RightHandThumb1 -24.326973 -0.000000 -32.862282
LeftShoulder -39.402098 29.604157 13.820507
LeftArm -23.311280 9.750024 -97.499511
LeftForeArm 36.106380 0.000000 1.335694
LeftHand -0.091524 -0.000000 -47.770761
LeftHandThumb1 -26.253704 0.000000 33.147579
Head -22.311770 1.809876 -4.499327
